REM DIRINDEX 1\2\6,1\2\7,1\2\8,1\2\9,1\3\10,1\3\11,1\4\12,1\4\13,1\4\14,1\5\15,1\5\16,1\5\17
REM DIRNAME cjc020,folder01,folder02,folder03,folder04,folder05,folder06,folder07,folder08,folder09,folder10,folder11,folder12,folder13,folder14,folder15,folder16
TITLE ""
FILE "1900_3_038 sec07_0615_0630.mp3" MP3
  TRACK 01 AUDIO
    TITLE "0:"
    INDEX 01 00:00:00
  TRACK 02 AUDIO
    TITLE "17:cjc020_7202"
    INDEX 01 00:00:17
  TRACK 03 AUDIO
    TITLE "0:"
    INDEX 01 00:01:30
  TRACK 04 AUDIO
    TITLE "16:cjc020_7203"
    INDEX 01 00:01:32
  TRACK 05 AUDIO
    TITLE "0:"
    INDEX 01 00:02:34
  TRACK 06 AUDIO
    TITLE "17:cjc020_7204"
    INDEX 01 00:03:17
  TRACK 07 AUDIO
    TITLE "0:"
    INDEX 01 00:04:42
  TRACK 08 AUDIO
    TITLE "16:cjc020_7205"
    INDEX 01 00:04:48
  TRACK 09 AUDIO
    TITLE "0:"
    INDEX 01 00:05:48
  TRACK 10 AUDIO
    TITLE "17:cjc020_7206"
    INDEX 01 00:06:35
  TRACK 11 AUDIO
    TITLE "0:"
    INDEX 01 00:09:10
  TRACK 12 AUDIO
    TITLE "16:cjc020_7207"
    INDEX 01 00:09:16
  TRACK 13 AUDIO
    TITLE "0:"
    INDEX 01 00:10:25
  TRACK 14 AUDIO
    TITLE "17:cjc020_7208"
    INDEX 01 00:11:09
  TRACK 15 AUDIO
    TITLE "0:"
    INDEX 01 00:12:34
  TRACK 16 AUDIO
    TITLE "16:cjc020_7209"
    INDEX 01 00:12:38
  TRACK 17 AUDIO
    TITLE "0:"
    INDEX 01 00:13:49
  TRACK 18 AUDIO
    TITLE "17:cjc020_7210"
    INDEX 01 00:14:33
  TRACK 19 AUDIO
    TITLE "0:"
    INDEX 01 00:15:28
  TRACK 20 AUDIO
    TITLE "16:cjc020_7211"
    INDEX 01 00:15:32
  TRACK 21 AUDIO
    TITLE "0:"
    INDEX 01 00:16:36
  TRACK 22 AUDIO
    TITLE "17:cjc020_7212"
    INDEX 01 00:17:27
  TRACK 23 AUDIO
    TITLE "0:"
    INDEX 01 00:18:46
  TRACK 24 AUDIO
    TITLE "16:cjc020_7213"
    INDEX 01 00:18:52
  TRACK 25 AUDIO
    TITLE "0:"
    INDEX 01 00:19:58
  TRACK 26 AUDIO
    TITLE "17:cjc020_7214"
    INDEX 01 00:20:43
  TRACK 27 AUDIO
    TITLE "0:"
    INDEX 01 00:21:57
  TRACK 28 AUDIO
    TITLE "16:cjc020_7215"
    INDEX 01 00:21:64
  TRACK 29 AUDIO
    TITLE "0:"
    INDEX 01 00:22:68
  TRACK 30 AUDIO
    TITLE "17:cjc020_7216"
    INDEX 01 00:23:57
  TRACK 31 AUDIO
    TITLE "0:"
    INDEX 01 00:25:03
  TRACK 32 AUDIO
    TITLE "16:cjc020_7217"
    INDEX 01 00:25:11
  TRACK 33 AUDIO
    TITLE "0:"
    INDEX 01 00:26:15
  TRACK 34 AUDIO
    TITLE "17:cjc020_7218"
    INDEX 01 00:26:73
  TRACK 35 AUDIO
    TITLE "0:"
    INDEX 01 00:28:27
  TRACK 36 AUDIO
    TITLE "16:cjc020_7219"
    INDEX 01 00:28:29
  TRACK 37 AUDIO
    TITLE "0:"
    INDEX 01 00:29:36
  TRACK 38 AUDIO
    TITLE "17:cjc020_7220"
    INDEX 01 00:30:22
  TRACK 39 AUDIO
    TITLE "0:"
    INDEX 01 00:31:49
  TRACK 40 AUDIO
    TITLE "16:cjc020_7221"
    INDEX 01 00:31:51
  TRACK 41 AUDIO
    TITLE "0:"
    INDEX 01 00:32:66
  TRACK 42 AUDIO
    TITLE "17:cjc020_7222"
    INDEX 01 00:33:44
  TRACK 43 AUDIO
    TITLE "0:"
    INDEX 01 00:34:53
  TRACK 44 AUDIO
    TITLE "16:cjc020_7223"
    INDEX 01 00:34:57
  TRACK 45 AUDIO
    TITLE "0:"
    INDEX 01 00:35:66
  TRACK 46 AUDIO
    TITLE "17:cjc020_7224"
    INDEX 01 00:36:52
  TRACK 47 AUDIO
    TITLE "0:"
    INDEX 01 00:38:12
  TRACK 48 AUDIO
    TITLE "16:cjc020_7225"
    INDEX 01 00:38:18
  TRACK 49 AUDIO
    TITLE "0:"
    INDEX 01 00:39:29
  TRACK 50 AUDIO
    TITLE "17:cjc020_7226"
    INDEX 01 00:40:15
  TRACK 51 AUDIO
    TITLE "0:"
    INDEX 01 00:41:59
  TRACK 52 AUDIO
    TITLE "16:cjc020_7227"
    INDEX 01 00:41:61
  TRACK 53 AUDIO
    TITLE "0:"
    INDEX 01 00:43:03
  TRACK 54 AUDIO
    TITLE "17:cjc020_7228"
    INDEX 01 00:43:58
  TRACK 55 AUDIO
    TITLE "0:"
    INDEX 01 00:45:06
  TRACK 56 AUDIO
    TITLE "16:cjc020_7229"
    INDEX 01 00:45:08
  TRACK 57 AUDIO
    TITLE "0:"
    INDEX 01 00:46:25
  TRACK 58 AUDIO
    TITLE "17:cjc020_7230"
    INDEX 01 00:47:07
  TRACK 59 AUDIO
    TITLE "0:"
    INDEX 01 00:48:38
  TRACK 60 AUDIO
    TITLE "16:cjc020_7231"
    INDEX 01 00:48:44
  TRACK 61 AUDIO
    TITLE "0:"
    INDEX 01 00:49:39
  TRACK 62 AUDIO
    TITLE "17:cjc020_7232"
    INDEX 01 00:50:21
  TRACK 63 AUDIO
    TITLE "0:"
    INDEX 01 00:51:16
  TRACK 64 AUDIO
    TITLE "16:cjc020_7233"
    INDEX 01 00:51:20
  TRACK 65 AUDIO
    TITLE "0:"
    INDEX 01 00:52:10
